HIERARCHY
ROOT root
{
	OFFSET 0.000000 0.000000 0.000000
	CHANNELS 6 Xposition Yposition Zposition Zrotation Yrotation Xrotation
	JOINT lhip
	{
		OFFSET 0.058581 -0.082280 -0.017664
		CHANNELS 3 Zrotation Yrotation Xrotation
		JOINT lknee
		{
			OFFSET 0.043451 -0.386469 0.008037
			CHANNELS 3 Zrotation Yrotation Xrotation
			JOINT lankle
			{
				OFFSET -0.014790 -0.426874 -0.037428
				CHANNELS 3 Zrotation Yrotation Xrotation
				JOINT ltoe
				{
					OFFSET 0.041054 -0.060286 0.122042
					CHANNELS 3 Zrotation Yrotation Xrotation
					End Site
					{
						OFFSET 0.000000 0.000000 0.000000
					}
				}
			}
		}
	}
	JOINT rhip
	{
		OFFSET -0.060310 -0.090513 -0.013543
		CHANNELS 3 Zrotation Yrotation Xrotation
		JOINT rknee
		{
			OFFSET -0.043257 -0.383688 -0.004843
			CHANNELS 3 Zrotation Yrotation Xrotation
			JOINT rankle
			{
				OFFSET 0.019056 -0.420046 -0.034562
				CHANNELS 3 Zrotation Yrotation Xrotation
				JOINT rtoe
				{
					OFFSET -0.034840 -0.062106 0.130323
					CHANNELS 3 Zrotation Yrotation Xrotation
					End Site
					{
						OFFSET 0.000000 0.000000 0.000000
					}
				}
			}
		}
	}
	JOINT lowerback
	{
		OFFSET 0.004439 0.124404 -0.038385
		CHANNELS 3 Zrotation Yrotation Xrotation
		JOINT upperback
		{
			OFFSET 0.004488 0.137956 0.026820
			CHANNELS 3 Zrotation Yrotation Xrotation
			JOINT chest
			{
				OFFSET -0.002265 0.056032 0.002855
				CHANNELS 3 Zrotation Yrotation Xrotation
				JOINT lowerneck
				{
					OFFSET -0.013390 0.211636 -0.033468
					CHANNELS 3 Zrotation Yrotation Xrotation
					JOINT upperneck
					{
						OFFSET 0.010113 0.088937 0.050410
						CHANNELS 3 Zrotation Yrotation Xrotation
						End Site
						{
							OFFSET 0.000000 0.000000 0.000000
						}
					}
				}
				JOINT lclavicle
				{
					OFFSET 0.071702 0.114000 -0.018898
					CHANNELS 3 Zrotation Yrotation Xrotation
					JOINT lshoulder
					{
						OFFSET 0.122921 0.045205 -0.019046
						CHANNELS 3 Zrotation Yrotation Xrotation
						JOINT lelbow
						{
							OFFSET 0.255332 -0.015649 -0.022946
							CHANNELS 3 Zrotation Yrotation Xrotation
							JOINT lwrist
							{
								OFFSET 0.265709 0.012698 -0.007375
								CHANNELS 3 Zrotation Yrotation Xrotation
								End Site
								{
									OFFSET 0.000000 0.000000 0.000000
								}
							}
						}
					}
				}
				JOINT rclavicle
				{
					OFFSET -0.082954 0.112472 -0.023707
					CHANNELS 3 Zrotation Yrotation Xrotation
					JOINT rshoulder
					{
						OFFSET -0.113228 0.046853 -0.008472
						CHANNELS 3 Zrotation Yrotation Xrotation
						JOINT relbow
						{
							OFFSET -0.260127 -0.014369 -0.031269
							CHANNELS 3 Zrotation Yrotation Xrotation
							JOINT rwrist
							{
								OFFSET -0.269108 0.006794 -0.006027
								CHANNELS 3 Zrotation Yrotation Xrotation
								End Site
								{
									OFFSET 0.000000 0.000000 0.000000
								}
							}
						}
					}
				}
			}
		}
	}
}
MOTION
Frames: 11
Frame Time: 0.033333
-1.697408 -0.139480 0.972838 -91.491923 0.719962 86.026574 12.953112 1.854113 11.402927 -4.856452 -11.266442 -3.294934 -3.545830 8.782578 -13.090162 0.000000 -0.000000 0.000000 -15.227775 -6.697201 5.874205 6.218008 6.652217 6.886369 10.228610 -5.230353 -13.851170 0.000000 -0.000000 0.000000 -1.516788 2.600117 6.645562 1.421689 -0.771787 -4.423549 1.676511 0.432651 -3.152893 -1.718426 29.592891 -13.306404 -0.698559 24.512311 19.579156 -32.086026 5.436391 -0.118383 -24.347652 -4.836456 4.346076 -16.756338 -24.827708 -12.464810 21.504187 -22.640508 -19.337186 38.402522 -4.064037 1.112086 20.217019 0.419139 17.481253 8.245759 29.268213 4.977447 -4.082493 22.620536 9.652820 
-1.690978 -0.137477 0.974662 -89.927689 0.933407 86.487415 13.237609 0.885043 8.694375 -5.486934 -11.892253 -0.574326 -3.379628 9.272345 -13.805746 0.000000 -0.000000 0.000000 -14.195030 -6.428711 3.620387 6.062296 6.308099 10.349560 9.628063 -6.717762 -14.836785 0.000000 -0.000000 0.000000 -2.089778 2.476340 7.783935 1.301685 -0.936329 -4.916971 1.607936 0.096453 -2.963052 -1.501328 29.047047 -13.501289 -0.408661 23.967224 19.526131 -32.592053 5.158615 -0.124928 -23.971110 -5.776082 3.649978 -14.397091 -24.702883 -15.738275 23.642946 -21.969266 -22.378274 38.753165 -3.637155 1.137333 20.560187 -0.321794 17.589871 6.057952 28.467534 2.418845 -5.415404 22.721837 8.800819 
-1.682006 -0.133693 0.974819 -87.018170 1.235621 86.851938 13.885972 -0.444168 4.056448 -6.948066 -13.047762 5.020872 -2.499090 8.916987 -15.127770 0.000000 -0.000000 0.000000 -13.009387 -6.487999 0.187753 6.131273 5.935637 16.890820 9.302941 -7.684716 -16.682337 0.000000 -0.000000 0.000000 -3.152731 2.386484 9.179709 1.316263 -1.335455 -4.627781 1.604459 -0.217352 -2.201118 -1.830412 27.925481 -14.732113 -0.768442 22.572477 18.427497 -32.473789 4.717040 -0.984772 -24.999785 -8.041926 2.461759 -9.722136 -27.117680 -21.885118 27.567689 -18.733279 -26.568541 38.564158 -3.527649 0.877560 22.785701 -0.960351 17.052162 2.191846 27.634162 -2.026166 -6.880465 21.687306 6.903619 
-1.670755 -0.126436 0.972001 -82.728055 1.621811 87.152167 15.022607 -1.907426 -2.116738 -9.547773 -14.602299 12.664722 -2.286785 7.963725 -16.759278 0.000000 -0.000000 0.000000 -11.151262 -5.638185 -3.840362 5.755156 5.827786 25.279927 8.165796 -8.823170 -19.661432 0.000000 -0.000000 0.000000 -4.476911 2.133830 11.263801 1.253043 -1.678284 -3.726249 1.427626 -0.622863 -1.321085 -3.275267 27.323990 -17.596219 -0.399225 20.756021 16.126984 -31.938700 2.637590 -0.753115 -25.950337 -10.834622 1.977443 -3.184570 -31.756505 -27.198872 32.561101 -14.225908 -31.711572 38.609217 -3.039257 1.451490 25.918223 -2.173900 15.933512 -2.335485 27.499690 -7.157603 -8.848406 20.207387 3.098301 
-1.658309 -0.115847 0.964080 -78.004425 1.957525 86.540914 15.933527 -2.282052 -7.310315 -11.897096 -16.502871 20.079322 -2.230948 6.585449 -17.819805 0.000000 -0.000000 0.000000 -9.700040 -3.951757 -6.740884 5.822446 6.127066 33.991417 7.605532 -8.515709 -22.588193 0.000000 -0.000000 0.000000 -5.251893 2.144751 15.731326 0.997509 -1.939402 -3.330303 0.941363 -1.113287 -0.565726 -4.191955 26.378986 -19.913763 -0.648438 17.745319 14.592320 -31.431763 -0.267638 -1.308977 -25.058851 -13.908794 1.655049 1.618688 -36.500168 -29.459025 35.001007 -11.987687 -33.326899 38.177521 -1.972395 1.484621 29.474099 -3.943152 15.816861 -5.370697 27.242957 -10.751598 -10.836968 19.120460 -0.479839 
-1.645335 -0.102692 0.948972 -72.928337 1.990090 86.268153 16.327277 -1.989333 -13.250543 -14.669129 -18.485524 27.459794 -1.996766 4.818335 -18.264418 0.000000 -0.000000 0.000000 -9.017153 -3.189116 -9.884285 5.532744 5.991068 42.619730 6.891924 -7.886028 -25.221147 0.000000 -0.000000 0.000000 -6.023043 2.158254 20.846037 0.800043 -2.465923 -3.136340 0.348425 -1.162923 -0.715865 -4.803649 24.757210 -20.545990 -0.509423 13.699523 12.160285 -30.120348 -3.594880 -1.910810 -23.957010 -16.398035 2.509371 5.185005 -41.740639 -27.942942 36.456467 -11.126241 -33.922105 37.680992 -0.540462 1.935669 33.041926 -6.494433 15.402485 -7.492361 27.565998 -12.242524 -12.138537 18.384867 -2.592549 
-1.634632 -0.088658 0.929133 -67.987639 2.185528 85.680512 16.037597 -1.069698 -18.936348 -16.706123 -20.155938 35.151916 -1.886599 2.355158 -18.943420 0.000000 -0.000000 0.000000 -8.551683 -3.278125 -11.891176 3.871796 5.977025 50.157141 5.731574 -9.249229 -26.886168 0.000000 -0.000000 0.000000 -5.533824 1.914619 26.082180 0.341753 -3.148802 -3.006422 -0.449898 -1.218952 -0.822409 -5.686298 22.513592 -20.604996 0.647687 10.562236 10.380643 -28.592906 -7.114858 -0.963411 -22.614315 -17.297828 2.403264 9.926577 -47.318720 -25.608671 36.495656 -10.903267 -32.384835 36.602376 1.261108 2.620689 36.536347 -8.857117 14.499433 -7.622523 27.963592 -10.812012 -12.586441 17.891622 -4.870345 
-1.626071 -0.075209 0.905809 -64.625742 1.614290 84.756412 15.698927 -1.925680 -22.326673 -18.312523 -20.109573 39.701444 -1.479233 1.567757 -20.805538 0.000000 -0.000000 0.000000 -9.399050 -2.529650 -13.154328 2.610070 7.369136 57.237126 5.091307 -9.860669 -27.379716 0.000000 -0.000000 0.000000 -5.699235 2.650377 29.527001 0.140395 -3.369126 -1.000932 -0.888012 -1.259641 -0.667926 -6.650243 19.527045 -18.986369 1.352717 7.355806 6.674150 -27.618482 -9.712619 -0.059055 -21.715589 -17.753717 2.732260 15.951972 -51.584972 -26.070066 36.657525 -11.592553 -31.245527 35.764269 3.220534 3.703651 39.063437 -10.234332 13.826415 -8.322037 28.974166 -9.333592 -11.621397 17.072512 -5.289577 
-1.617764 -0.060720 0.883746 -63.203701 0.713683 83.400688 15.151584 -2.199701 -24.503182 -19.494051 -19.907044 43.710629 -0.123563 1.291876 -22.266263 0.000000 -0.000000 0.000000 -10.631124 -0.826982 -13.871476 2.923641 9.838020 64.256722 4.785018 -10.249525 -26.007863 0.000000 -0.000000 0.000000 -5.533205 3.678422 31.431133 -0.783976 -2.934537 4.606945 -1.504728 -0.896938 -2.097519 -8.020357 16.124033 -20.046035 3.036367 5.275447 6.085130 -27.684721 -11.819499 -1.422091 -20.747011 -16.813539 3.365981 17.429786 -54.356280 -27.667290 39.122758 -11.600703 -31.372045 35.969560 6.527167 3.395050 40.134717 -11.692505 13.697398 -7.696240 28.888828 -12.321761 -14.437001 19.002880 -0.740723 
-1.609604 -0.044620 0.863992 -62.915343 -0.471413 82.422364 14.975351 -3.251491 -26.963758 -20.013012 -18.002339 47.252512 -0.369090 0.763321 -22.753969 0.000000 -0.000000 0.000000 -12.298760 0.371972 -14.766823 3.480561 12.102881 70.374307 4.583720 -9.603015 -24.062340 0.000000 -0.000000 0.000000 -5.302501 4.588696 33.385377 -1.573616 -2.106768 7.149490 -2.388051 0.157502 -2.020402 -8.726069 14.160391 -18.783923 3.354049 2.657459 3.716488 -28.681643 -12.252825 -0.896722 -21.849709 -15.204877 4.196384 17.593723 -53.918934 -29.426229 39.655960 -10.740094 -30.822798 36.432173 8.083091 4.397558 40.578954 -11.068991 13.707219 -8.451700 29.358516 -14.003130 -14.401708 18.598770 -0.069071 
-1.600323 -0.024801 0.848755 -63.393580 -1.308738 81.896425 14.752338 -2.770635 -28.645388 -19.604679 -17.925741 49.285189 -0.244460 0.577309 -23.068793 0.000000 -0.000000 0.000000 -13.263695 1.118066 -15.613195 4.011623 14.011952 74.653060 4.000609 -8.602543 -23.027574 0.000000 -0.000000 0.000000 -4.339384 4.477198 35.400047 -2.943443 -1.180247 8.521738 -3.441653 1.181685 -2.051271 -9.179828 12.095866 -17.331438 3.686559 1.747192 2.220889 -31.239299 -11.807830 0.373790 -22.232048 -11.387583 3.784417 14.250455 -51.577176 -28.640222 38.944952 -12.789719 -30.745542 36.590773 10.053091 5.818021 40.631842 -10.070369 12.990736 -8.848577 30.779461 -15.122387 -15.144933 19.494041 -0.098198 
